<?xml version="1.0" encoding="UTF-8" standalone="no"?>
<!-- Created with Inkscape (http://www.inkscape.org/) -->

<svg
   width="882.95416"
   height="119.28021"
   viewBox="0 0 882.95416 119.28021"
   version="1.1"
   id="svg1"
   xmlns="http://www.w3.org/2000/svg"
   xmlns:svg="http://www.w3.org/2000/svg">
  <defs
     id="defs1" />
  <g
     id="layer1"
     transform="translate(107.25509,-66.252626)">
    <path
       d="m 29.767295,38.337729 h 8.960016 v 2.613338 h -8.960016 z m 11.200028,0 h 8.960016 v 2.613338 h -8.960016 z m 11.200027,0 h 8.960016 v 2.613338 H 52.16735 Z m 11.200028,0 h 8.960016 v 2.613338 h -8.960016 z m 11.200027,0 h 8.960016 v 2.613338 h -8.960016 z m 156.800385,0 h 8.96002 v 2.613338 h -8.96002 z m 168.00041,0 h 8.96002 v 2.613338 h -8.96002 z m 44.80011,0 h 8.96002 v 2.613338 h -8.96002 z m 22.40006,0 h 8.96001 v 2.613338 h -8.96001 z m 22.40005,0 h 8.96002 v 2.613338 h -8.96002 z m 280.0007,0 h 8.96002 v 2.613338 h -8.96002 z M 24.820612,45.711074 h 2.893339 L 21.273939,63.257772 H 18.380601 Z M 52.16735,61.671103 h 8.960016 v 2.613338 H 52.16735 Z m 11.200028,0 h 8.960016 v 2.613338 h -8.960016 z m 11.200027,0 h 8.960016 v 2.613338 H 74.567405 Z M 88.847438,45.711074 h 2.800005 v 17.546698 h -2.800005 z m 134.400332,0 h 2.8 v 17.546698 h -2.8 z m 22.40005,0 h 2.80001 v 17.546698 h -2.80001 z m 145.60034,0 h 2.80001 v 17.546698 h -2.80001 z m 22.40009,0 h 2.8 v 17.546698 h -2.8 z m 22.40002,0 h 2.80001 v 17.546698 h -2.80001 z m 21.09342,7.000013 q 0,-1.325336 0.41067,-2.482671 0.42933,-1.157336 1.21333,-2.090671 0.80267,-0.933335 1.94134,-1.624003 1.13867,-0.690668 2.59467,-1.082668 v 2.800005 q -1.58667,0.392 -2.48267,1.568002 -0.87733,1.176003 -0.87733,2.912006 v 3.565339 q 0,0.840002 0.224,1.568003 0.24266,0.728002 0.672,1.306669 0.42933,0.560001 1.04533,0.970669 0.63467,0.392 1.41867,0.578667 v 2.837339 q -2.98667,-0.802668 -4.57334,-2.669338 -1.58667,-1.86667 -1.58667,-4.592009 z m 9.42668,8.960016 h 8.96001 v 2.613338 h -8.96001 z m 12.22668,-16.240029 q 1.456,0.392 2.59467,1.082668 1.13867,0.690668 1.92267,1.624003 0.80267,0.933335 1.21333,2.090671 0.42934,1.157335 0.42934,2.482671 v 3.565339 q 0,2.725339 -1.58667,4.592009 -1.58667,1.86667 -4.57334,2.669338 v -2.837339 q 0.784,-0.186667 1.4,-0.578667 0.63467,-0.410668 1.064,-0.970669 0.42934,-0.578667 0.65334,-1.306669 0.24266,-0.728001 0.24266,-1.568003 v -3.565339 q 0,-1.736003 -0.896,-2.912006 -0.87733,-1.176002 -2.464,-1.568002 z m 24.45342,0.28 h 2.8 v 17.546698 h -2.8 z m 257.60059,0 h 2.8 v 17.546698 h -2.8 z m 22.40008,0 h 2.80001 v 17.546698 h -2.80001 z M 27.695284,86.591146 H 24.801946 L 18.361934,69.044448 h 2.893338 z M 42.740659,69.865783 h 2.800005 l 1.86667,2.725338 h -2.426671 z m 28.840067,7.205346 v 2.613338 h -8.400015 v -2.613338 z m -18.666701,0 h 8.400015 v 2.613338 H 52.914025 Z M 77.08741,82.78314 q 0,-0.896002 0.522667,-1.437336 0.541334,-0.541335 1.437336,-0.541335 0.896002,0 1.418669,0.541335 0.541335,0.541334 0.541335,1.437336 0,0.877334 -0.541335,1.418669 -0.522667,0.522667 -1.418669,0.522667 -0.896002,0 -1.437336,-0.522667 Q 77.08741,83.660474 77.08741,82.78314 Z m 31.08008,2.221337 h 20.16004 v 2.613338 h -20.16004 z m 33.60008,0 h 8.96002 v 2.613338 h -8.96002 z m 22.40005,0 h 8.96002 v 2.613338 h -8.96002 z m 22.40007,0 h 20.16003 v 2.613338 h -20.16003 z m 36.68008,-15.960029 h 2.8 v 17.546698 h -2.8 z m 22.40005,0 h 2.80001 v 17.546698 h -2.80001 z m 8.12002,15.960029 h 8.96002 v 2.613338 h -8.96002 z m 22.40007,0 h 8.96002 v 2.613338 h -8.96002 z m 11.20002,0 h 8.96001 v 2.613338 h -8.96001 z m 11.20001,0 h 8.96002 v 2.613338 h -8.96002 z m 33.6001,0 h 8.96001 v 2.613338 h -8.96001 z m 11.20001,0 h 8.96002 v 2.613338 h -8.96002 z m 11.20004,0 h 8.96002 v 2.613338 h -8.96002 z m 36.68007,-15.960029 h 2.80001 v 17.546698 h -2.80001 z m 22.40009,0 h 2.8 v 17.546698 h -2.8 z m 22.40002,0 h 2.80001 v 17.546698 h -2.80001 z m 22.40009,0 h 2.8 v 17.546698 h -2.8 z m 8.12001,15.960029 h 8.96001 v 2.613338 h -8.96001 z m 14.28001,-15.960029 h 2.80001 v 17.546698 h -2.80001 z m 22.40009,0 h 2.8 v 17.546698 h -2.8 z m 19.32007,15.960029 h 20.16004 v 2.613338 h -20.16004 z m 33.60005,0 h 8.96001 v 2.613338 h -8.96001 z m 22.40002,0 h 8.96002 v 2.613338 h -8.96002 z m 22.40008,0 h 20.16003 v 2.613338 h -20.16003 z m 56.00013,0 h 8.96001 v 2.613338 h -8.96001 z m 11.20001,0 h 8.96002 v 2.613338 h -8.96002 z m 11.20007,0 h 8.96002 v 2.613338 h -8.96002 z m 22.40003,0 h 8.96001 v 2.613338 h -8.96001 z m 44.80011,0 h 8.96001 v 2.613338 h -8.96001 z m 14.28002,-15.960029 h 2.8 v 17.546698 h -2.8 z m 22.40008,0 h 2.80001 v 17.546698 h -2.80001 z m 19.32008,15.960029 h 8.96002 v 2.613338 h -8.96002 z m 11.20001,0 h 8.96002 v 2.613338 h -8.96002 z m 11.20002,0 h 8.96001 v 2.613338 h -8.96001 z m 33.60009,0 h 8.96002 v 2.613338 h -8.96002 z m 11.20002,0 h 8.96001 v 2.613338 h -8.96001 z m 11.20001,0 h 8.96001 v 2.613338 h -8.96001 z m -849.428738,8.19468 h 2.800005 l 1.86667,2.725338 h -2.426671 z m 28.840066,7.205343 v 2.61334 h -8.400015 v -2.61334 z m -18.6667,0 h 8.400015 v 2.61334 h -8.400015 z m 24.173384,5.71201 q 0,-0.896 0.522668,-1.43733 0.541334,-0.54134 1.437336,-0.54134 0.896001,0 1.418669,0.54134 0.541334,0.54133 0.541334,1.43733 0,0.87734 -0.541334,1.41867 -0.522668,0.52267 -1.418669,0.52267 -0.896002,0 -1.437336,-0.52267 -0.522668,-0.54133 -0.522668,-1.41867 z m 29.008067,3.80801 H 92.00211 L 85.562099,92.377822 h 2.893338 z M 103.2208,92.377822 h 2.89334 l -6.440009,17.546698 h -2.893338 z m 16.14671,15.960028 h 8.96002 v 2.61334 h -8.96002 z m 12.97337,-15.138693 h 2.8 l 1.86667,2.725338 h -2.42667 z m 23.70672,-0.821335 h 2.80001 v 17.546698 h -2.80001 z m 22.41872,1.86667 h 2.76268 v 2.986672 l -0.24267,2.613338 h -2.25867 l -0.26134,-2.613338 z m 8.10136,14.093358 h 8.96002 v 2.61334 h -8.96002 z m 31.52807,1.58667 h -2.89334 L 208.7624,92.377822 h 2.89334 z m 5.15202,-17.546698 h 2.8 v 17.546698 h -2.8 z m 19.32005,15.960028 h 20.16004 v 2.61334 h -20.16004 z m 28.6534,-15.960028 h 2.89334 l -6.44002,17.546698 h -2.89334 z m 16.14671,15.960028 h 8.96001 v 2.61334 h -8.96001 z m 31.52807,1.58667 h -2.89334 l -6.44001,-17.546698 h 2.89334 z m 8.32537,-17.546698 h 2.89334 l -6.44001,17.546698 h -2.89334 z m 16.1467,15.960028 h 20.16004 v 2.61334 h -20.16004 z m 25.48007,-15.960028 h 2.8 v 17.546698 h -2.8 z m 22.40002,0 h 2.80001 v 17.546698 h -2.80001 z m 22.40009,0 h 2.8 v 17.546698 h -2.8 z m 22.40002,0 h 2.80001 v 17.546698 h -2.80001 z m 22.40009,0 h 2.8 v 17.546698 h -2.8 z m 22.40002,0 h 2.80001 v 17.546698 h -2.80001 z m 22.40009,0 h 2.8 v 17.546698 h -2.8 z m 14.37335,0 h 2.89334 l -6.44001,17.546698 h -2.89334 z m 16.14674,15.960028 h 8.96002 v 2.61334 h -8.96002 z m 12.97335,-15.138693 h 2.80001 l 1.86667,2.725338 h -2.42668 z m 23.70669,-0.821335 h 2.80001 v 17.546698 h -2.80001 z m 22.41876,1.86667 h 2.76267 v 2.986672 l -0.24267,2.613338 h -2.25867 l -0.26133,-2.613338 z m 8.10134,14.093358 h 8.96001 v 2.61334 h -8.96001 z m 31.5281,1.58667 h -2.89334 l -6.44001,-17.546698 h 2.89334 z m 19.52535,-17.546698 h 2.89334 l -6.44001,17.546698 h -2.89334 z m 16.14673,15.960028 h 20.16004 v 2.61334 h -20.16004 z m 25.48004,-15.960028 h 2.80001 v 17.546698 h -2.80001 z m 22.40009,0 h 2.8 v 17.546698 h -2.8 z m 22.40002,0 h 2.80001 v 17.546698 h -2.80001 z m 22.40003,0 h 2.8 v 17.546698 h -2.8 z m 22.40008,0 h 2.80001 v 17.546698 h -2.80001 z m 14.37335,0 h 2.89334 l -6.44001,17.546698 h -2.89334 z m 16.14674,15.960028 h 8.96002 v 2.61334 h -8.96002 z m 31.52804,1.58667 h -2.89333 l -6.44002,-17.546698 h 2.89334 z m 8.32534,-17.546698 h 2.89334 l -6.44001,17.546698 h -2.89334 z m 16.14674,15.960028 h 20.16003 v 2.61334 h -20.16003 z m 25.4801,-15.960028 h 2.8 v 17.546698 h -2.8 z M 24.820612,115.7112 h 2.893339 l -6.440012,17.54669 h -2.893338 z m 14.0747,17.54669 H 36.001973 L 29.561961,115.7112 H 32.4553 Z m 2.072018,-1.58667 h 20.160036 v 2.61334 H 40.96733 Z M 69.620722,115.7112 h 2.893339 l -6.440012,17.54669 h -2.893338 z m 22.400055,0 h 2.893339 l -6.440012,17.54669 h -2.893339 z m 17.920043,7.00001 q 0,-1.32534 0.41067,-2.48267 0.42934,-1.15734 1.21334,-2.09067 0.80266,-0.93334 1.94133,-1.62401 1.13867,-0.69066 2.59468,-1.08266 v 2.8 q -1.58667,0.392 -2.48268,1.568 -0.87733,1.17601 -0.87733,2.91201 v 3.56534 q 0,0.84 0.224,1.568 0.24267,0.728 0.672,1.30667 0.42933,0.56 1.04534,0.97067 0.63466,0.392 1.41867,0.57867 v 2.83733 q -2.98668,-0.80266 -4.57335,-2.66933 -1.58667,-1.86667 -1.58667,-4.59201 z m 9.42669,8.96001 h 8.96002 v 2.61334 h -8.96002 z m 14.28004,-15.96002 h 2.8 v 17.54669 h -2.8 z m 22.40005,0 h 2.80001 v 17.54669 h -2.80001 z m 22.40006,0 h 2.8 v 17.54669 h -2.8 z m 22.40005,0 h 2.80001 v 17.54669 h -2.80001 z m 22.40006,0 h 2.8 v 17.54669 h -2.8 z m 32.48008,0 h 2.8 v 17.54669 h -2.8 z m -8.96002,0 h 2.80001 v 17.54669 h -2.80001 z m 31.17342,7.00001 q 0,-1.32534 0.41067,-2.48267 0.42933,-1.15734 1.21333,-2.09067 0.80267,-0.93334 1.94134,-1.62401 1.13867,-0.69066 2.59467,-1.08266 v 2.8 q -1.58667,0.392 -2.48267,1.568 -0.87733,1.17601 -0.87733,2.91201 v 3.56534 q 0,0.84 0.224,1.568 0.24266,0.728 0.672,1.30667 0.42933,0.56 1.04533,0.97067 0.63467,0.392 1.41867,0.57867 v 2.83733 q -2.98667,-0.80266 -4.57334,-2.66933 -1.58667,-1.86667 -1.58667,-4.59201 z m 9.42668,8.96001 h 8.96001 v 2.61334 h -8.96001 z m 12.22668,-16.24002 q 1.456,0.392 2.59467,1.08266 1.13867,0.69067 1.92267,1.62401 0.80267,0.93333 1.21333,2.09067 0.42934,1.15733 0.42934,2.48267 v 3.56534 q 0,2.72534 -1.58667,4.59201 -1.58667,1.86667 -4.57334,2.66933 v -2.83733 q 0.784,-0.18667 1.4,-0.57867 0.63467,-0.41067 1.064,-0.97067 0.42934,-0.57867 0.65334,-1.30667 0.24266,-0.728 0.24266,-1.568 v -3.56534 q 0,-1.736 -0.896,-2.91201 -0.87733,-1.176 -2.464,-1.568 z m 30.50143,17.82669 h -2.89334 l -6.44001,-17.54669 h 2.89334 z m 2.07199,-1.58667 h 20.16004 v 2.61334 h -20.16004 z m 42.72812,1.58667 h -2.89334 L 365.5628,115.7112 h 2.89334 z m 22.40003,0 h -2.89334 l -6.44001,-17.54669 h 2.89333 z m 22.40008,0 h -2.89334 l -6.44001,-17.54669 h 2.89334 z m 2.072,-1.58667 h 8.96001 v 2.61334 h -8.96001 z m 17.45335,-15.96002 h 2.89334 l -6.44001,17.54669 h -2.89334 z m 22.40009,0 h 2.89334 l -6.44001,17.54669 h -2.89334 z m 19.22668,0 h 2.80001 v 17.54669 h -2.80001 z m 22.40009,0 h 2.8 v 17.54669 h -2.8 z m 21.09335,7.00001 q 0,-1.32534 0.41067,-2.48267 0.42934,-1.15734 1.21334,-2.09067 0.80267,-0.93334 1.94133,-1.62401 1.13867,-0.69066 2.59468,-1.08266 v 2.8 q -1.58667,0.392 -2.48268,1.568 -0.87733,1.17601 -0.87733,2.91201 v 3.56534 q 0,0.84 0.224,1.568 0.24267,0.728 0.672,1.30667 0.42934,0.56 1.04534,0.97067 0.63466,0.392 1.41867,0.57867 v 2.83733 q -2.98668,-0.80266 -4.57335,-2.66933 -1.58667,-1.86667 -1.58667,-4.59201 z m 9.42674,8.96001 h 8.96002 v 2.61334 h -8.96002 z m 14.28002,-15.96002 h 2.8 v 17.54669 h -2.8 z m 22.40002,0 h 2.80001 v 17.54669 h -2.80001 z m 22.40009,0 h 2.8 v 17.54669 h -2.8 z m 22.40002,0 h 2.80001 v 17.54669 h -2.80001 z m 22.40009,0 h 2.8 v 17.54669 h -2.8 z m 21.09335,7.00001 q 0,-1.32534 0.41067,-2.48267 0.42934,-1.15734 1.21334,-2.09067 0.80267,-0.93334 1.94133,-1.62401 1.13867,-0.69066 2.59468,-1.08266 v 2.8 q -1.58667,0.392 -2.48268,1.568 -0.87733,1.17601 -0.87733,2.91201 v 3.56534 q 0,0.84 0.224,1.568 0.24267,0.728 0.672,1.30667 0.42934,0.56 1.04534,0.97067 0.63466,0.392 1.41867,0.57867 v 2.83733 q -2.98668,-0.80266 -4.57335,-2.66933 -1.58667,-1.86667 -1.58667,-4.59201 z m 9.42673,8.96001 h 20.16004 v 2.61334 h -20.16004 z m 25.48004,-15.96002 h 2.80001 v 17.54669 h -2.80001 z m 22.40009,0 h 2.8 v 17.54669 h -2.8 z m 8.12,15.96002 h 8.96002 v 2.61334 h -8.96002 z m 14.28002,-15.96002 h 2.80001 v 17.54669 h -2.80001 z m 22.40003,0 h 2.8 v 17.54669 h -2.8 z m 22.40008,0 h 2.80001 v 17.54669 h -2.80001 z m 21.09342,7.00001 q 0,-1.32534 0.41066,-2.48267 0.42934,-1.15734 1.21334,-2.09067 0.80267,-0.93334 1.94134,-1.62401 1.13867,-0.69066 2.59467,-1.08266 v 2.8 q -1.58667,0.392 -2.48267,1.568 -0.87734,1.17601 -0.87734,2.91201 v 3.56534 q 0,0.84 0.224,1.568 0.24267,0.728 0.672,1.30667 0.42934,0.56 1.04534,0.97067 0.63467,0.392 1.41867,0.57867 v 2.83733 q -2.98667,-0.80266 -4.57334,-2.66933 -1.58667,-1.86667 -1.58667,-4.59201 z m 9.42667,8.96001 h 8.96002 v 2.61334 h -8.96002 z m 12.22668,-16.24002 q 1.45601,0.392 2.59468,1.08266 1.13866,0.69067 1.92267,1.62401 0.80266,0.93333 1.21333,2.09067 0.42933,1.15733 0.42933,2.48267 v 3.56534 q 0,2.72534 -1.58666,4.59201 -1.58667,1.86667 -4.57335,2.66933 v -2.83733 q 0.78401,-0.18667 1.40001,-0.57867 0.63466,-0.41067 1.064,-0.97067 0.42933,-0.57867 0.65333,-1.30667 0.24267,-0.728 0.24267,-1.568 v -3.56534 q 0,-1.736 -0.896,-2.91201 -0.87734,-1.176 -2.46401,-1.568 z m 30.50138,17.82669 h -2.89334 l -6.44001,-17.54669 h 2.89333 z m 2.07204,-1.58667 h 20.16004 v 2.61334 h -20.16004 z m 42.72813,1.58667 h -2.89334 l -6.44001,-17.54669 h 2.89334 z M 27.695284,156.59127 h -2.893338 l -6.440012,-17.5467 h 2.893338 z m 2.072011,-1.58667 h 8.960016 v 2.61334 h -8.960016 z m 11.200028,0 h 8.960016 v 2.61334 h -8.960016 z m 11.200027,0 h 8.960016 v 2.61334 H 52.16735 Z m 11.200028,0 h 8.960016 v 2.61334 H 63.367378 Z M 80.82075,139.04457 h 2.893338 l -6.440011,17.5467 h -2.893339 z m 25.27473,17.5467 h -2.89334 l -6.440014,-17.5467 h 2.893339 z m 2.07201,-1.58667 h 20.16004 v 2.61334 h -20.16004 z m 28.74673,-3.28534 -2.42667,5.80534 h -2.42667 l 1.49333,-5.80534 z m 7.65337,5.89868 v -2.61334 h 11.48002 v -14.46669 h 2.80001 v 14.46669 h 11.48002 v 2.61334 z m 33.88007,-18.57337 h 2.8 v 17.5467 h -2.8 z m 22.40005,0 h 2.80001 v 17.5467 h -2.80001 z m 8.12002,15.96003 h 8.96002 v 2.61334 h -8.96002 z m 14.28004,-15.96003 h 2.8 v 17.5467 h -2.8 z m 17.24804,17.5467 h -2.89334 l -6.44001,-17.5467 h 2.89333 z m 2.07201,-1.58667 h 20.16004 v 2.61334 h -20.16004 z m 31.52807,1.58667 h -2.89334 l -6.44001,-17.5467 h 2.89334 z m 2.07202,-1.58667 h 8.96002 v 2.61334 h -8.96002 z m 11.20002,0 h 8.96001 v 2.61334 h -8.96001 z m 11.20001,0 h 8.96002 v 2.61334 h -8.96002 z m 17.45339,-15.96003 h 2.89333 l -6.44001,17.5467 h -2.89334 z m 8.0267,0 h 2.80001 v 17.5467 h -2.80001 z m 8.12001,15.96003 h 8.96001 v 2.61334 h -8.96001 z m 11.20001,0 h 8.96002 v 2.61334 h -8.96002 z m 11.20004,0 h 8.96002 v 2.61334 h -8.96002 z m 17.45339,-15.96003 h 2.89334 l -6.44001,17.5467 h -2.89334 z m 36.47474,17.5467 h -2.89334 l -6.44001,-17.5467 h 2.89334 z m 2.07202,-1.58667 h 8.96002 v 2.61334 h -8.96002 z m 11.20002,0 h 8.96001 v 2.61334 h -8.96001 z m 11.20001,0 h 8.96001 v 2.61334 h -8.96001 z m 17.45339,-15.96003 h 2.89333 l -6.44001,17.5467 h -2.89334 z m 8.0267,0 h 2.8 v 17.5467 h -2.8 z m 10.92003,18.57337 v -2.61334 h 11.48002 v -14.46669 h 2.8 v 14.46669 h 11.48002 v 2.61334 z m 33.88008,-18.57337 h 2.8 v 17.5467 h -2.8 z m 17.24802,17.5467 h -2.89334 l -6.44001,-17.5467 h 2.89334 z m 2.07205,-1.58667 h 20.16004 v 2.61334 h -20.16004 z m 28.74671,-3.28534 -2.42667,5.80534 h -2.42667 l 1.49334,-5.80534 z m 7.65333,5.89868 v -2.61334 h 11.48002 v -14.46669 h 2.8 v 14.46669 h 11.48002 v 2.61334 z m 33.88011,-18.57337 h 2.8 v 17.5467 h -2.8 z m 22.40002,0 h 2.80001 v 17.5467 h -2.80001 z m 8.12007,15.96003 h 8.96002 v 2.61334 h -8.96002 z m 14.28002,-15.96003 h 2.8 v 17.5467 h -2.8 z m 17.24802,17.5467 h -2.89334 l -6.44001,-17.5467 h 2.89334 z m 2.072,-1.58667 h 8.96001 v 2.61334 h -8.96001 z m 11.20001,0 h 8.96002 v 2.61334 h -8.96002 z m 11.20007,0 h 8.96002 v 2.61334 h -8.96002 z m 14.28002,-15.96003 h 2.80001 v 17.5467 h -2.80001 z m 17.24802,17.5467 h -2.89333 l -6.44002,-17.5467 h 2.89334 z m 2.07205,-1.58667 h 20.16004 v 2.61334 h -20.16004 z m 28.74671,-3.28534 -2.42667,5.80534 h -2.42667 l 1.49334,-5.80534 z m 7.65339,5.89868 v -2.61334 h 11.48002 v -14.46669 h 2.8 v 14.46669 h 11.48002 v 2.61334 z m 33.88005,-18.57337 h 2.80001 v 17.5467 h -2.80001 z m 17.24802,17.5467 h -2.89333 l -6.44002,-17.5467 h 2.89334 z m 2.07206,-1.58667 h 8.96002 v 2.61334 h -8.96002 z m 11.20001,0 h 8.96002 v 2.61334 h -8.96002 z m 11.20002,0 h 8.96001 v 2.61334 h -8.96001 z m 17.45335,-15.96003 h 2.89334 l -6.44001,17.5467 h -2.89334 z m 8.02668,0 h 2.8 v 17.5467 h -2.8 z m 8.12006,15.96003 h 8.96002 v 2.61334 h -8.96002 z m 11.20002,0 h 8.96001 v 2.61334 h -8.96001 z m 11.20001,0 h 8.96001 v 2.61334 h -8.96001 z m 17.45342,-15.96003 h 2.89333 l -6.44001,17.5467 h -2.89334 z"
       id="text1"
       style="font-weight:800;font-size:18.6667px;font-family:'JetBrains Mono';-inkscape-font-specification:'JetBrains Mono Ultra-Bold';white-space:pre"
       transform="translate(-125.61702,27.914895)"
       aria-label=" _____             _              _   _ _ _                        _&#10;/  ___|           | |            | | | (_) |                      | |&#10;\ `--.  __ _ _ __ | |_ ___  ___  | | | |_| | __ _ _ __   ___ _   _| | ___  ___&#10; `--. \/ _` | '_ \| __/ _ \/ __| | | | | | |/ _` | '_ \ / __| | | | |/ _ \/ __|&#10;/\__/ / (_| | | | | || (_) \__ \ \ \_/ / | | (_| | | | | (__| |_| | | (_) \__ \&#10;\____/ \__,_|_| |_|\__\___/|___/  \___/|_|_|\__,_|_| |_|\___|\__,_|_|\___/|___/&#10;" />
  </g>
</svg>
